# Blender v2.80 (sub 75) OBJ File: 'hand.blend'
# www.blender.org
mtllib hand.mtl
o hand
v -0.509908 0.106848 -1.031518
v -0.515180 0.099896 -1.080032
v -0.496068 0.116411 -1.037812
v -0.507627 0.089030 -1.032438
v -0.487983 0.135763 -0.829738
v -0.476322 0.043993 -0.835174
v -0.416578 0.185103 -0.862208
v -0.483627 0.110056 -1.043489
v -0.352390 0.152315 -0.891499
v -0.481367 0.092268 -1.044543
v -0.495207 0.082705 -1.038249
v -0.412134 0.011204 -0.864465
v -0.340729 0.060544 -0.896935
v 0.025525 0.134259 0.297219
v 0.037188 0.042490 0.291788
v 0.096932 0.183600 0.264753
v 0.161120 0.150812 0.235462
v 0.172781 0.059041 0.230025
v 0.101374 0.009700 0.262491
v 0.210899 0.150665 0.344708
v 0.222560 0.058895 0.339271
v 0.146711 0.183453 0.373999
v 0.086968 0.042343 0.401034
v 0.075307 0.134114 0.406471
v 0.151155 0.009555 0.371743
v 0.179493 0.183358 0.445942
v 0.108088 0.134019 0.478414
v 0.243680 0.150570 0.416651
v 0.255342 0.058799 0.411215
v 0.183937 0.009460 0.443686
v 0.119749 0.042247 0.472977
vt 160.285004 139.789993
vt 160.257004 136.847000
vt 152.335999 138.352005
vt 171.289001 130.847000
vt 163.246002 130.102997
vt 170.503998 133.688004
vt -119.466003 -67.120003
vt -119.695000 -64.659302
vt -111.629997 -65.224800
vt -111.908997 102.997002
vt -111.333000 105.884003
vt -103.827003 102.760002
vt -24.906700 215.100006
vt -31.795200 219.417007
vt -29.780600 221.563004
vt 172.889008 125.452003
vt 166.951996 119.948997
vt 170.949005 126.988998
vt 200.587006 148.548996
vt 204.744003 133.942001
vt 193.345993 145.772003
vt 193.201996 130.587006
vt -152.061005 -75.002403
vt -153.242004 -62.307098
vt 187.574005 156.268997
vt 197.496994 148.263000
vt -145.524002 103.983002
vt -142.550995 118.875000
vt -60.445999 237.375000
vt -50.052601 248.447998
vt -29.780701 221.563004
vt -115.616997 105.072998
vt -104.053001 110.443001
vt -91.200203 102.353996
vt -93.312500 87.315399
vt -104.875999 81.945099
vt -117.728996 90.034103
vt -93.312500 87.315399
vt -104.875999 81.945099
vt -117.728996 90.034103
vt -115.616997 105.072998
vt -104.053001 110.443001
vt -91.200203 102.353996
vt -115.616997 105.072998
vt -104.053001 110.443001
vt -91.200203 102.353996
vt -93.312500 87.315399
vt -104.875999 81.945099
vt -117.728996 90.034103
vt 176.707001 135.768005
vt 373.385010 185.843994
vt 377.131989 171.128006
vt 180.453995 121.052002
vt 121.908997 221.001999
vt 305.348999 307.834991
vt 311.846008 294.109009
vt 128.406006 207.276001
vt -206.800995 53.159901
vt -380.937988 157.399994
vt -374.390015 168.339996
vt -200.251999 64.099602
vt -376.959015 171.809998
vt -373.212006 186.526001
vt -176.533005 136.449997
vt -180.279999 121.734001
vt -312.147003 293.472992
vt -305.649994 307.199005
vt -122.209999 220.365997
vt -128.707993 206.639999
vt 374.390015 168.339996
vt 380.937988 157.399994
vt 206.800995 53.159901
vt 200.251999 64.099602
vt -396.024994 176.664001
vt -392.278015 191.380997
vt -397.819000 167.505997
vt -391.270996 178.445007
vt 392.451996 190.699005
vt 396.199005 175.981995
vt 323.131012 316.252991
vt 329.628998 302.527008
vt 305.649994 307.199005
vt 323.433014 315.617004
vt 329.929993 301.890015
vt 312.147003 293.472992
vt 391.270996 178.445007
vt 397.819000 167.505997
vt 334.842010 321.795990
vt 341.338989 308.070007
vt -408.936005 174.160004
vt -402.386993 185.100006
vt -408.579987 179.860992
vt -404.833008 194.576996
vt -341.640015 307.433990
vt -335.143005 321.160004
vt -323.433014 315.617004
vt -329.929993 301.890015
vt 402.386993 185.100006
vt 408.936005 174.160004
vt 405.006989 193.895004
vt 408.753998 179.179001
vt -115.616997 105.072998
vt -104.053001 110.443001
vt -91.200203 102.353996
vt -93.312500 87.315399
vt -104.875999 81.945099
vt -117.728996 90.034103
vn -0.5838 0.8102 -0.0527
vn -0.9832 -0.1324 0.1258
vn 0.2377 0.8632 -0.4453
vn 0.7317 0.1326 -0.6686
vn 0.3333 -0.8052 -0.4906
vn -0.4940 -0.8614 -0.1183
vn 0.4146 -0.0012 0.9100
vn -0.9012 -0.1388 0.4105
vn -0.4841 0.8465 0.2217
vn 0.3839 0.9069 -0.1737
vn 0.9012 0.1388 -0.4105
vn 0.4841 -0.8465 -0.2217
vn -0.3840 -0.9069 0.1737
vn 0.3840 0.9069 -0.1737
vn -0.3839 -0.9069 0.1737
usemtl _auto_
s 1
f 1/1/1 3/2/1 2/3/1
f 1/4/2 2/5/2 4/6/2
f 3/7/3 8/8/3 2/9/3
f 8/10/4 10/11/4 2/12/4
f 2/13/5 10/14/5 11/15/5
f 4/16/6 2/17/6 11/18/6
usemtl _auto_1
f 4/6/2 6/19/2 5/20/2 1/4/2
f 5/21/1 7/22/1 3/2/1 1/1/1
f 3/7/3 7/23/3 9/24/3 8/8/3
f 4/16/6 11/18/6 12/25/6 6/26/6
f 9/27/4 13/28/4 10/11/4 8/10/4
f 13/29/5 12/30/5 11/31/5 10/14/5
usemtl _auto_3
f 6/32/7 12/33/7 13/34/7 9/35/7 7/36/7 5/37/7
f 17/38/7 16/39/7 14/40/7 15/41/7 19/42/7 18/43/7
f 23/44/7 25/45/7 21/46/7 20/47/7 22/48/7 24/49/7
usemtl _auto_2
f 6/50/8 15/51/8 14/52/8 5/53/8
f 5/54/9 14/55/9 16/56/9 7/57/9
f 7/58/10 16/59/10 17/60/10 9/61/10
f 17/62/11 18/63/11 13/64/11 9/65/11
f 18/66/12 19/67/12 12/68/12 13/69/12
f 19/70/13 15/71/13 6/72/13 12/73/13
usemtl _auto_4
f 20/74/11 21/75/11 18/63/11 17/62/11
f 16/59/14 22/76/14 20/77/14 17/60/14
f 15/51/8 23/78/8 24/79/8 14/52/8
f 14/55/9 24/80/9 22/81/9 16/56/9
f 19/82/9 25/83/9 21/84/9 18/85/9
f 25/86/13 23/87/13 15/71/13 19/70/13
usemtl _auto_5
f 24/80/9 27/88/9 26/89/9 22/81/9
f 22/76/14 26/90/14 28/91/14 20/77/14
f 28/92/11 29/93/11 21/75/11 20/74/11
f 29/94/12 30/95/12 25/96/12 21/97/12
f 30/98/15 31/99/15 23/87/15 25/86/15
f 23/78/8 31/100/8 27/101/8 24/79/8
f 31/102/7 30/103/7 29/104/7 28/105/7 26/106/7 27/107/7
